<svg width="876" height="408" viewBox="0 0 876 408" fill="none" xmlns="http://www.w3.org/2000/svg">
<g clip-path="url(#clip0_31_1893)">
<path d="M875.479 0V368.363C799.449 375.924 694.598 373.18 552.583 346.178C272.168 292.875 84.5882 340.077 -0.520508 371.837V0H875.479Z" fill="#857357"/>
<path d="M875.479 368.363V406.516C799.155 411.449 694.216 405.027 552.76 372.859C274.871 309.66 85.8515 349.914 -0.520508 378.639V371.837C84.5882 340.077 272.168 292.875 552.583 346.178C694.598 373.18 799.449 375.924 875.479 368.363Z" fill="white"/>
<path opacity="0.49" d="M70.2798 354.848C88.5007 354.848 103.272 340.171 103.272 322.066C103.272 303.961 88.5007 289.284 70.2798 289.284C52.059 289.284 37.2881 303.961 37.2881 322.066C37.2881 340.171 52.059 354.848 70.2798 354.848Z" fill="white"/>
<path opacity="0.49" d="M591.391 364.393C609.612 364.393 624.383 349.716 624.383 331.612C624.383 313.507 609.612 298.83 591.391 298.83C573.17 298.83 558.399 313.507 558.399 331.612C558.399 349.716 573.17 364.393 591.391 364.393Z" fill="white"/>
<path opacity="0.49" d="M145.871 276.382C154.989 276.382 162.382 269.037 162.382 259.976C162.382 250.916 154.989 243.571 145.871 243.571C136.752 243.571 129.36 250.916 129.36 259.976C129.36 269.037 136.752 276.382 145.871 276.382Z" fill="white"/>
<path opacity="0.49" d="M321.967 331.641C331.085 331.641 338.477 324.296 338.477 315.235C338.477 306.175 331.085 298.83 321.967 298.83C312.848 298.83 305.456 306.175 305.456 315.235C305.456 324.296 312.848 331.641 321.967 331.641Z" fill="white"/>
<path opacity="0.49" d="M715.894 312.666C725.013 312.666 732.405 305.321 732.405 296.261C732.405 287.201 725.013 279.856 715.894 279.856C706.776 279.856 699.384 287.201 699.384 296.261C699.384 305.321 706.776 312.666 715.894 312.666Z" fill="white"/>
<path opacity="0.49" d="M50.2429 220.481C55.6459 220.481 60.0259 216.129 60.0259 210.76C60.0259 205.391 55.6459 201.039 50.2429 201.039C44.8399 201.039 40.46 205.391 40.46 210.76C40.46 216.129 44.8399 220.481 50.2429 220.481Z" fill="white"/>
<path opacity="0.49" d="M790.019 351.053C795.422 351.053 799.802 346.701 799.802 341.332C799.802 335.964 795.422 331.612 790.019 331.612C784.616 331.612 780.236 335.964 780.236 341.332C780.236 346.701 784.616 351.053 790.019 351.053Z" fill="white"/>
<path opacity="0.49" d="M500.935 305.982C506.338 305.982 510.718 301.63 510.718 296.261C510.718 290.892 506.338 286.54 500.935 286.54C495.532 286.54 491.152 290.892 491.152 296.261C491.152 301.63 495.532 305.982 500.935 305.982Z" fill="white"/>
<path opacity="0.49" d="M819.983 237.587C825.386 237.587 829.766 233.235 829.766 227.866C829.766 222.498 825.386 218.146 819.983 218.146C814.58 218.146 810.2 222.498 810.2 227.866C810.2 233.235 814.58 237.587 819.983 237.587Z" fill="white"/>
<path opacity="0.49" d="M848.1 310.244C851.978 310.244 855.122 307.12 855.122 303.267C855.122 299.414 851.978 296.29 848.1 296.29C844.223 296.29 841.079 299.414 841.079 303.267C841.079 307.12 844.223 310.244 848.1 310.244Z" fill="white"/>
<path opacity="0.49" d="M219.845 299.063C225.248 299.063 229.628 294.711 229.628 289.343C229.628 283.974 225.248 279.622 219.845 279.622C214.442 279.622 210.062 283.974 210.062 289.343C210.062 294.711 214.442 299.063 219.845 299.063Z" fill="white"/>
<path opacity="0.49" d="M279.367 253.934C282.06 253.934 284.244 251.764 284.244 249.088C284.244 246.412 282.06 244.242 279.367 244.242C276.674 244.242 274.49 246.412 274.49 249.088C274.49 251.764 276.674 253.934 279.367 253.934Z" fill="white"/>
<path opacity="0.49" d="M124.485 177.19C127.179 177.19 129.362 175.021 129.362 172.345C129.362 169.668 127.179 167.499 124.485 167.499C121.792 167.499 119.608 169.668 119.608 172.345C119.608 175.021 121.792 177.19 124.485 177.19Z" fill="white"/>
<path opacity="0.49" d="M403.902 289.343C406.596 289.343 408.779 287.173 408.779 284.497C408.779 281.821 406.596 279.651 403.902 279.651C401.209 279.651 399.025 281.821 399.025 284.497C399.025 287.173 401.209 289.343 403.902 289.343Z" fill="white"/>
<path opacity="0.49" d="M743.277 196.106C745.971 196.106 748.154 193.937 748.154 191.261C748.154 188.584 745.971 186.415 743.277 186.415C740.584 186.415 738.4 188.584 738.4 191.261C738.4 193.937 740.584 196.106 743.277 196.106Z" fill="white"/>
</g>
<defs>
<clipPath id="clip0_31_1893">
<rect width="876" height="408" fill="white"/>
</clipPath>
</defs>
</svg>
